<?xml version="1.0" encoding="utf-8" standalone="no"?>
<!DOCTYPE svg PUBLIC "-//W3C//DTD SVG 1.1//EN"
  "http://www.w3.org/Graphics/SVG/1.1/DTD/svg11.dtd">
<!-- Created with matplotlib (https://matplotlib.org/) -->
<svg height="180.65625pt" version="1.1" viewBox="0 0 245.120313 180.65625" width="245.120313pt" xmlns="http://www.w3.org/2000/svg" xmlns:xlink="http://www.w3.org/1999/xlink">
 <metadata>
  <rdf:RDF xmlns:cc="http://creativecommons.org/ns#" xmlns:dc="http://purl.org/dc/elements/1.1/" xmlns:rdf="http://www.w3.org/1999/02/22-rdf-syntax-ns#">
   <cc:Work>
    <dc:type rdf:resource="http://purl.org/dc/dcmitype/StillImage"/>
    <dc:date>2021-08-25T12:05:59.544110</dc:date>
    <dc:format>image/svg+xml</dc:format>
    <dc:creator>
     <cc:Agent>
      <dc:title>Matplotlib v3.3.4, https://matplotlib.org/</dc:title>
     </cc:Agent>
    </dc:creator>
   </cc:Work>
  </rdf:RDF>
 </metadata>
 <defs>
  <style type="text/css">*{stroke-linecap:butt;stroke-linejoin:round;}</style>
 </defs>
 <g id="figure_1">
  <g id="patch_1">
   <path d="M 0 180.65625 
L 245.120313 180.65625 
L 245.120313 0 
L 0 0 
z
" style="fill:none;"/>
  </g>
  <g id="axes_1">
   <g id="patch_2">
    <path d="M 42.620312 143.1 
L 237.920313 143.1 
L 237.920313 7.2 
L 42.620312 7.2 
z
" style="fill:#ffffff;"/>
   </g>
   <g id="matplotlib.axis_1">
    <g id="xtick_1">
     <g id="line2d_1">
      <defs>
       <path d="M 0 0 
L 0 3.5 
" id="m30da834712" style="stroke:#000000;stroke-width:0.8;"/>
      </defs>
      <g>
       <use style="stroke:#000000;stroke-width:0.8;" x="88.39375" xlink:href="#m30da834712" y="143.1"/>
      </g>
     </g>
     <g id="text_1">
      <!-- −4 -->
      <g transform="translate(81.022656 157.698438)scale(0.1 -0.1)">
       <defs>
        <path d="M 10.59375 35.5 
L 73.1875 35.5 
L 73.1875 27.203125 
L 10.59375 27.203125 
z
" id="DejaVuSans-8722"/>
        <path d="M 37.796875 64.3125 
L 12.890625 25.390625 
L 37.796875 25.390625 
z
M 35.203125 72.90625 
L 47.609375 72.90625 
L 47.609375 25.390625 
L 58.015625 25.390625 
L 58.015625 17.1875 
L 47.609375 17.1875 
L 47.609375 0 
L 37.796875 0 
L 37.796875 17.1875 
L 4.890625 17.1875 
L 4.890625 26.703125 
z
" id="DejaVuSans-52"/>
       </defs>
       <use xlink:href="#DejaVuSans-8722"/>
       <use x="83.789062" xlink:href="#DejaVuSans-52"/>
      </g>
     </g>
    </g>
    <g id="xtick_2">
     <g id="line2d_2">
      <g>
       <use style="stroke:#000000;stroke-width:0.8;" x="149.425" xlink:href="#m30da834712" y="143.1"/>
      </g>
     </g>
     <g id="text_2">
      <!-- −2 -->
      <g transform="translate(142.053907 157.698438)scale(0.1 -0.1)">
       <defs>
        <path d="M 19.1875 8.296875 
L 53.609375 8.296875 
L 53.609375 0 
L 7.328125 0 
L 7.328125 8.296875 
Q 12.9375 14.109375 22.625 23.890625 
Q 32.328125 33.6875 34.8125 36.53125 
Q 39.546875 41.84375 41.421875 45.53125 
Q 43.3125 49.21875 43.3125 52.78125 
Q 43.3125 58.59375 39.234375 62.25 
Q 35.15625 65.921875 28.609375 65.921875 
Q 23.96875 65.921875 18.8125 64.3125 
Q 13.671875 62.703125 7.8125 59.421875 
L 7.8125 69.390625 
Q 13.765625 71.78125 18.9375 73 
Q 24.125 74.21875 28.421875 74.21875 
Q 39.75 74.21875 46.484375 68.546875 
Q 53.21875 62.890625 53.21875 53.421875 
Q 53.21875 48.921875 51.53125 44.890625 
Q 49.859375 40.875 45.40625 35.40625 
Q 44.1875 33.984375 37.640625 27.21875 
Q 31.109375 20.453125 19.1875 8.296875 
z
" id="DejaVuSans-50"/>
       </defs>
       <use xlink:href="#DejaVuSans-8722"/>
       <use x="83.789062" xlink:href="#DejaVuSans-50"/>
      </g>
     </g>
    </g>
    <g id="xtick_3">
     <g id="line2d_3">
      <g>
       <use style="stroke:#000000;stroke-width:0.8;" x="210.456251" xlink:href="#m30da834712" y="143.1"/>
      </g>
     </g>
     <g id="text_3">
      <!-- 0 -->
      <g transform="translate(207.275001 157.698438)scale(0.1 -0.1)">
       <defs>
        <path d="M 31.78125 66.40625 
Q 24.171875 66.40625 20.328125 58.90625 
Q 16.5 51.421875 16.5 36.375 
Q 16.5 21.390625 20.328125 13.890625 
Q 24.171875 6.390625 31.78125 6.390625 
Q 39.453125 6.390625 43.28125 13.890625 
Q 47.125 21.390625 47.125 36.375 
Q 47.125 51.421875 43.28125 58.90625 
Q 39.453125 66.40625 31.78125 66.40625 
z
M 31.78125 74.21875 
Q 44.046875 74.21875 50.515625 64.515625 
Q 56.984375 54.828125 56.984375 36.375 
Q 56.984375 17.96875 50.515625 8.265625 
Q 44.046875 -1.421875 31.78125 -1.421875 
Q 19.53125 -1.421875 13.0625 8.265625 
Q 6.59375 17.96875 6.59375 36.375 
Q 6.59375 54.828125 13.0625 64.515625 
Q 19.53125 74.21875 31.78125 74.21875 
z
" id="DejaVuSans-48"/>
       </defs>
       <use xlink:href="#DejaVuSans-48"/>
      </g>
     </g>
    </g>
    <g id="text_4">
     <!-- x1 -->
     <g transform="translate(134.129687 171.376563)scale(0.1 -0.1)">
      <defs>
       <path d="M 54.890625 54.6875 
L 35.109375 28.078125 
L 55.90625 0 
L 45.3125 0 
L 29.390625 21.484375 
L 13.484375 0 
L 2.875 0 
L 24.125 28.609375 
L 4.6875 54.6875 
L 15.28125 54.6875 
L 29.78125 35.203125 
L 44.28125 54.6875 
z
" id="DejaVuSans-120"/>
       <path d="M 12.40625 8.296875 
L 28.515625 8.296875 
L 28.515625 63.921875 
L 10.984375 60.40625 
L 10.984375 69.390625 
L 28.421875 72.90625 
L 38.28125 72.90625 
L 38.28125 8.296875 
L 54.390625 8.296875 
L 54.390625 0 
L 12.40625 0 
z
" id="DejaVuSans-49"/>
      </defs>
      <use xlink:href="#DejaVuSans-120"/>
      <use x="59.179688" xlink:href="#DejaVuSans-49"/>
     </g>
    </g>
   </g>
   <g id="matplotlib.axis_2">
    <g id="ytick_1">
     <g id="line2d_4">
      <defs>
       <path d="M 0 0 
L -3.5 0 
" id="m6e9d74a723" style="stroke:#000000;stroke-width:0.8;"/>
      </defs>
      <g>
       <use style="stroke:#000000;stroke-width:0.8;" x="42.620312" xlink:href="#m6e9d74a723" y="143.1"/>
      </g>
     </g>
     <g id="text_5">
      <!-- −3 -->
      <g transform="translate(20.878125 146.899219)scale(0.1 -0.1)">
       <defs>
        <path d="M 40.578125 39.3125 
Q 47.65625 37.796875 51.625 33 
Q 55.609375 28.21875 55.609375 21.1875 
Q 55.609375 10.40625 48.1875 4.484375 
Q 40.765625 -1.421875 27.09375 -1.421875 
Q 22.515625 -1.421875 17.65625 -0.515625 
Q 12.796875 0.390625 7.625 2.203125 
L 7.625 11.71875 
Q 11.71875 9.328125 16.59375 8.109375 
Q 21.484375 6.890625 26.8125 6.890625 
Q 36.078125 6.890625 40.9375 10.546875 
Q 45.796875 14.203125 45.796875 21.1875 
Q 45.796875 27.640625 41.28125 31.265625 
Q 36.765625 34.90625 28.71875 34.90625 
L 20.21875 34.90625 
L 20.21875 43.015625 
L 29.109375 43.015625 
Q 36.375 43.015625 40.234375 45.921875 
Q 44.09375 48.828125 44.09375 54.296875 
Q 44.09375 59.90625 40.109375 62.90625 
Q 36.140625 65.921875 28.71875 65.921875 
Q 24.65625 65.921875 20.015625 65.03125 
Q 15.375 64.15625 9.8125 62.3125 
L 9.8125 71.09375 
Q 15.4375 72.65625 20.34375 73.4375 
Q 25.25 74.21875 29.59375 74.21875 
Q 40.828125 74.21875 47.359375 69.109375 
Q 53.90625 64.015625 53.90625 55.328125 
Q 53.90625 49.265625 50.4375 45.09375 
Q 46.96875 40.921875 40.578125 39.3125 
z
" id="DejaVuSans-51"/>
       </defs>
       <use xlink:href="#DejaVuSans-8722"/>
       <use x="83.789062" xlink:href="#DejaVuSans-51"/>
      </g>
     </g>
    </g>
    <g id="ytick_2">
     <g id="line2d_5">
      <g>
       <use style="stroke:#000000;stroke-width:0.8;" x="42.620312" xlink:href="#m6e9d74a723" y="108.253846"/>
      </g>
     </g>
     <g id="text_6">
      <!-- −2 -->
      <g transform="translate(20.878125 112.053065)scale(0.1 -0.1)">
       <use xlink:href="#DejaVuSans-8722"/>
       <use x="83.789062" xlink:href="#DejaVuSans-50"/>
      </g>
     </g>
    </g>
    <g id="ytick_3">
     <g id="line2d_6">
      <g>
       <use style="stroke:#000000;stroke-width:0.8;" x="42.620312" xlink:href="#m6e9d74a723" y="73.407692"/>
      </g>
     </g>
     <g id="text_7">
      <!-- −1 -->
      <g transform="translate(20.878125 77.206911)scale(0.1 -0.1)">
       <use xlink:href="#DejaVuSans-8722"/>
       <use x="83.789062" xlink:href="#DejaVuSans-49"/>
      </g>
     </g>
    </g>
    <g id="ytick_4">
     <g id="line2d_7">
      <g>
       <use style="stroke:#000000;stroke-width:0.8;" x="42.620312" xlink:href="#m6e9d74a723" y="38.561538"/>
      </g>
     </g>
     <g id="text_8">
      <!-- 0 -->
      <g transform="translate(29.257812 42.360757)scale(0.1 -0.1)">
       <use xlink:href="#DejaVuSans-48"/>
      </g>
     </g>
    </g>
    <g id="text_9">
     <!-- x2 -->
     <g transform="translate(14.798437 81.290625)rotate(-90)scale(0.1 -0.1)">
      <use xlink:href="#DejaVuSans-120"/>
      <use x="59.179688" xlink:href="#DejaVuSans-50"/>
     </g>
    </g>
   </g>
   <g id="LineCollection_1"/>
   <g id="LineCollection_2">
    <path clip-path="url(#pc0e4525a6f)" d="M 133.389338 7.2 
L 131.354961 10.684614 
L 131.115628 11.149219 
L 129.618631 14.16923 
L 128.121641 17.653845 
L 128.064069 17.812225 
L 126.898922 21.138461 
L 125.900228 24.623076 
L 125.123465 28.107691 
L 125.012502 28.804598 
L 124.58421 31.592307 
L 124.262994 35.076923 
L 124.155921 38.561539 
L 124.262994 42.046154 
L 124.58421 45.530769 
L 125.012502 48.318478 
L 125.123465 49.015384 
L 125.900228 52.500001 
L 126.898922 55.984615 
L 128.064069 59.310851 
L 128.121641 59.469231 
L 129.618631 62.953845 
L 131.115628 65.973855 
L 131.354961 66.438459 
L 133.389338 69.923076 
L 134.167188 71.115182 
L 135.724107 73.407692 
L 137.218755 75.398907 
L 138.387435 76.892308 
L 140.270314 79.089128 
L 141.423126 80.37692 
L 143.321874 82.328309 
L 144.883135 83.861536 
L 146.373441 85.216671 
L 148.829573 87.346153 
L 149.425 87.826789 
L 152.476564 90.169895 
L 153.383783 90.830769 
L 155.528127 92.292059 
L 158.57969 94.25918 
L 158.672164 94.315385 
L 161.631253 96.004895 
L 164.682813 97.641606 
L 164.998499 97.800001 
L 167.734376 99.094286 
L 170.785939 100.438353 
L 172.861005 101.284618 
L 173.837499 101.66133 
L 176.889062 102.744387 
L 179.940626 103.733262 
L 182.992189 104.627962 
L 183.530712 104.769234 
L 186.04375 105.394675 
L 189.095313 106.064794 
L 192.146877 106.645562 
L 195.198438 107.136982 
L 198.250001 107.539054 
L 201.301564 107.851774 
L 204.353126 108.075148 
L 207.404689 108.20917 
L 210.456251 108.253846 
L 213.507813 108.20917 
L 216.559376 108.075148 
L 219.610939 107.851774 
L 222.662501 107.539054 
L 225.714063 107.136982 
L 228.765626 106.645562 
L 231.817188 106.064794 
L 234.868751 105.394675 
L 237.38179 104.769234 
L 237.920313 104.627962 
" style="fill:none;stroke:#1f77b4;stroke-width:1.5;"/>
   </g>
   <g id="LineCollection_3">
    <path clip-path="url(#pc0e4525a6f)" d="M 94.741 7.2 
L 94.496869 7.814946 
L 93.387217 10.684614 
L 92.198295 14.16923 
L 91.44531 16.715693 
L 91.174923 17.653845 
L 90.325119 21.138461 
L 89.629825 24.623076 
L 89.089044 28.107691 
L 88.702769 31.592307 
L 88.471007 35.076923 
L 88.393757 38.561206 
L 88.39375 38.561539 
L 88.393757 38.561871 
L 88.471007 42.046154 
L 88.702769 45.530769 
L 89.089044 49.015384 
L 89.629825 52.500001 
L 90.325119 55.984615 
L 91.174923 59.469231 
L 91.44531 60.407382 
L 92.198295 62.953845 
L 93.387217 66.438459 
L 94.496869 69.30813 
L 94.741 69.923076 
L 96.287127 73.407692 
L 97.548436 75.979666 
L 98.008263 76.892308 
L 99.931161 80.37692 
L 100.599996 81.491996 
L 102.061308 83.861536 
L 103.651563 86.249145 
L 104.403397 87.346153 
L 106.703122 90.470284 
L 106.976403 90.830769 
L 109.754682 94.25917 
L 109.801639 94.315385 
L 112.806249 97.694405 
L 112.903126 97.800001 
L 115.857816 100.836595 
L 116.308047 101.284618 
L 118.909375 103.733262 
L 120.04725 104.769234 
L 121.960942 106.422193 
L 124.155924 108.253846 
L 125.012502 108.93377 
L 128.064069 111.271016 
L 128.697415 111.738466 
L 131.115628 113.440255 
L 133.748347 115.223078 
L 134.167188 115.494103 
L 137.218755 117.391282 
L 139.426266 118.70769 
L 140.270314 119.189606 
L 143.321874 120.857774 
L 145.876677 122.192311 
L 146.373441 122.441211 
L 149.425 123.899059 
L 152.476564 125.285791 
L 153.383788 125.676923 
L 155.528127 126.565159 
L 158.57969 127.760863 
L 161.631253 128.888239 
L 162.418734 129.161535 
L 164.682813 129.917634 
L 167.734376 130.870972 
L 170.785939 131.758564 
L 173.837499 132.580406 
L 174.102859 132.646155 
L 176.889062 133.311398 
L 179.940626 133.976642 
L 182.992189 134.57853 
L 186.04375 135.117062 
L 189.095313 135.592236 
L 192.146877 136.004057 
L 193.256511 136.130768 
L 195.198438 136.344737 
L 198.250001 136.619839 
L 201.301564 136.833805 
L 204.353126 136.986639 
L 207.404689 137.078339 
L 210.456251 137.108907 
L 213.507813 137.078339 
L 216.559376 136.986639 
L 219.610939 136.833805 
L 222.662501 136.619839 
L 225.714063 136.344737 
L 227.655991 136.130768 
L 228.765626 136.004057 
L 231.817188 135.592236 
L 234.868751 135.117062 
L 237.920313 134.57853 
" style="fill:none;stroke:#1f77b4;stroke-width:1.5;"/>
   </g>
   <g id="LineCollection_4">
    <path clip-path="url(#pc0e4525a6f)" d="M 66.101283 7.2 
L 65.009145 10.684614 
L 64.045489 14.16923 
L 63.981244 14.437284 
L 63.226219 17.653845 
L 62.534115 21.138461 
L 61.967845 24.623076 
L 61.527415 28.107691 
L 61.21282 31.592307 
L 61.024065 35.076923 
L 60.961145 38.561539 
L 61.024065 42.046154 
L 61.21282 45.530769 
L 61.527415 49.015384 
L 61.967845 52.500001 
L 62.534115 55.984615 
L 63.226219 59.469231 
L 63.981244 62.685792 
L 64.045489 62.953845 
L 65.009145 66.438459 
L 66.101283 69.923076 
L 67.032818 72.582402 
L 67.328125 73.407692 
L 68.706252 76.892308 
L 70.084378 80.073917 
L 70.218509 80.37692 
L 71.895191 83.861536 
L 73.135938 86.249145 
L 73.718821 87.346153 
L 75.70748 90.830769 
L 76.187512 91.617635 
L 77.871125 94.315385 
L 79.239071 96.374484 
L 80.208385 97.800001 
L 82.290631 100.687261 
L 82.731817 101.284618 
L 85.342191 104.627962 
L 85.455214 104.769234 
L 88.39375 108.253846 
L 88.393757 108.253854 
L 91.44531 111.610969 
L 91.564212 111.738466 
L 94.496869 114.736843 
L 94.98513 115.223078 
L 97.548436 117.662305 
L 98.677098 118.70769 
L 100.599996 120.412926 
L 102.66303 122.192311 
L 103.651563 123.010127 
L 106.703122 125.463574 
L 106.976403 125.676923 
L 109.754682 127.760856 
L 111.679511 129.161535 
L 112.806249 129.950509 
L 115.857816 132.021554 
L 116.808306 132.646155 
L 118.909375 133.97664 
L 121.960942 135.845668 
L 122.442758 136.130768 
L 125.012502 137.597976 
L 128.064069 139.279152 
L 128.697416 139.615388 
L 131.115628 140.855672 
L 134.167188 142.361734 
L 135.724104 143.1 
" style="fill:none;stroke:#1f77b4;stroke-width:1.5;"/>
   </g>
   <g id="LineCollection_5">
    <path clip-path="url(#pc0e4525a6f)" d="M 42.620312 71.115188 
L 43.320213 73.407692 
L 44.496043 76.892308 
L 45.671872 80.073903 
L 45.785952 80.37692 
L 47.211915 83.861536 
L 48.723432 87.281609 
L 48.7525 87.346153 
L 50.438126 90.830769 
L 51.775006 93.41615 
L 52.249024 94.315385 
L 54.204398 97.800001 
L 54.826565 98.845393 
L 56.307021 101.284618 
L 57.878125 103.733263 
L 58.556253 104.769234 
L 60.929685 108.209162 
L 60.961151 108.253846 
L 63.540821 111.738466 
L 63.981244 112.305719 
L 66.294014 115.223078 
L 67.032818 116.113596 
L 69.231252 118.70769 
L 70.084378 119.671522 
L 72.364666 122.192311 
L 73.135938 123.010127 
L 75.70748 125.676923 
L 76.187512 126.155214 
L 79.239071 129.127391 
L 79.274952 129.161535 
L 82.290631 131.922942 
L 83.09947 132.646155 
L 85.342191 134.578536 
L 87.188189 136.130768 
L 88.393757 137.108915 
L 91.44531 139.52368 
L 91.564212 139.615388 
L 94.496869 141.800646 
L 96.287127 143.1 
" style="fill:none;stroke:#1f77b4;stroke-width:1.5;"/>
   </g>
   <g id="LineCollection_6">
    <path clip-path="url(#pc0e4525a6f)" d="M 42.620312 115.494102 
L 44.943982 118.70769 
L 45.671872 119.671517 
L 47.611182 122.192311 
L 48.723432 123.579037 
L 50.438126 125.676923 
L 51.775006 127.248424 
L 53.434101 129.161535 
L 54.826565 130.706605 
L 56.609163 132.646155 
L 57.878125 133.97664 
L 59.974143 136.130768 
L 60.929685 137.078341 
L 63.540815 139.615388 
L 63.981244 140.028815 
L 67.032818 142.834235 
L 67.32812 143.1 
" style="fill:none;stroke:#1f77b4;stroke-width:1.5;"/>
   </g>
   <g id="LineCollection_7">
    <path clip-path="url(#pc0e4525a6f)" d="M 42.620312 142.361735 
L 43.320214 143.1 
" style="fill:none;stroke:#1f77b4;stroke-width:1.5;"/>
   </g>
   <g id="LineCollection_8"/>
   <g id="line2d_8">
    <path clip-path="url(#pc0e4525a6f)" d="M 57.878125 108.253846 
L 88.597726 73.224572 
L 108.463006 62.14075 
L 125.498614 59.221251 
L 141.946733 49.687315 
L 157.542383 38.347675 
L 172.98539 40.408843 
L 182.854798 42.183063 
L 190.067034 36.80081 
L 195.664944 37.218912 
L 193.998982 37.035393 
L 196.121007 42.71708 
L 195.280443 36.880683 
L 195.148948 30.431583 
L 200.379461 39.035148 
L 199.293947 41.849885 
L 202.083975 40.064409 
L 200.458543 36.750847 
L 205.447883 40.065206 
L 204.296136 39.473187 
L 207.515005 36.715423 
L 204.750827 37.586919 
L 204.728085 39.502518 
L 207.148589 38.240306 
L 199.870663 34.795505 
L 202.033771 39.804856 
L 206.399337 41.355039 
L 205.837734 38.910664 
L 204.332854 34.571129 
L 210.244212 33.509877 
L 208.778852 36.597357 
L 215.617928 30.856959 
L 214.270045 29.464554 
L 215.833268 28.296909 
L 214.17328 30.252855 
L 210.92054 33.66008 
L 208.207498 30.309898 
L 206.918099 29.78417 
L 207.800779 34.732428 
L 206.121891 31.76523 
L 204.952122 37.287808 
L 206.054056 35.838758 
L 203.576516 35.590678 
L 207.832462 32.220949 
L 208.036324 37.896676 
L 212.55249 41.210087 
L 217.203101 38.872744 
L 210.626465 42.213623 
L 205.519711 37.57774 
L 207.214707 40.600556 
L 205.853909 40.0597 
" style="fill:none;stroke:#ff7f0e;stroke-linecap:square;stroke-width:1.5;"/>
    <defs>
     <path d="M 0 3 
C 0.795609 3 1.55874 2.683901 2.12132 2.12132 
C 2.683901 1.55874 3 0.795609 3 0 
C 3 -0.795609 2.683901 -1.55874 2.12132 -2.12132 
C 1.55874 -2.683901 0.795609 -3 0 -3 
C -0.795609 -3 -1.55874 -2.683901 -2.12132 -2.12132 
C -2.683901 -1.55874 -3 -0.795609 -3 0 
C -3 0.795609 -2.683901 1.55874 -2.12132 2.12132 
C -1.55874 2.683901 -0.795609 3 0 3 
z
" id="maa85c063c2" style="stroke:#ff7f0e;"/>
    </defs>
    <g clip-path="url(#pc0e4525a6f)">
     <use style="fill:#ff7f0e;stroke:#ff7f0e;" x="57.878125" xlink:href="#maa85c063c2" y="108.253846"/>
     <use style="fill:#ff7f0e;stroke:#ff7f0e;" x="88.597726" xlink:href="#maa85c063c2" y="73.224572"/>
     <use style="fill:#ff7f0e;stroke:#ff7f0e;" x="108.463006" xlink:href="#maa85c063c2" y="62.14075"/>
     <use style="fill:#ff7f0e;stroke:#ff7f0e;" x="125.498614" xlink:href="#maa85c063c2" y="59.221251"/>
     <use style="fill:#ff7f0e;stroke:#ff7f0e;" x="141.946733" xlink:href="#maa85c063c2" y="49.687315"/>
     <use style="fill:#ff7f0e;stroke:#ff7f0e;" x="157.542383" xlink:href="#maa85c063c2" y="38.347675"/>
     <use style="fill:#ff7f0e;stroke:#ff7f0e;" x="172.98539" xlink:href="#maa85c063c2" y="40.408843"/>
     <use style="fill:#ff7f0e;stroke:#ff7f0e;" x="182.854798" xlink:href="#maa85c063c2" y="42.183063"/>
     <use style="fill:#ff7f0e;stroke:#ff7f0e;" x="190.067034" xlink:href="#maa85c063c2" y="36.80081"/>
     <use style="fill:#ff7f0e;stroke:#ff7f0e;" x="195.664944" xlink:href="#maa85c063c2" y="37.218912"/>
     <use style="fill:#ff7f0e;stroke:#ff7f0e;" x="193.998982" xlink:href="#maa85c063c2" y="37.035393"/>
     <use style="fill:#ff7f0e;stroke:#ff7f0e;" x="196.121007" xlink:href="#maa85c063c2" y="42.71708"/>
     <use style="fill:#ff7f0e;stroke:#ff7f0e;" x="195.280443" xlink:href="#maa85c063c2" y="36.880683"/>
     <use style="fill:#ff7f0e;stroke:#ff7f0e;" x="195.148948" xlink:href="#maa85c063c2" y="30.431583"/>
     <use style="fill:#ff7f0e;stroke:#ff7f0e;" x="200.379461" xlink:href="#maa85c063c2" y="39.035148"/>
     <use style="fill:#ff7f0e;stroke:#ff7f0e;" x="199.293947" xlink:href="#maa85c063c2" y="41.849885"/>
     <use style="fill:#ff7f0e;stroke:#ff7f0e;" x="202.083975" xlink:href="#maa85c063c2" y="40.064409"/>
     <use style="fill:#ff7f0e;stroke:#ff7f0e;" x="200.458543" xlink:href="#maa85c063c2" y="36.750847"/>
     <use style="fill:#ff7f0e;stroke:#ff7f0e;" x="205.447883" xlink:href="#maa85c063c2" y="40.065206"/>
     <use style="fill:#ff7f0e;stroke:#ff7f0e;" x="204.296136" xlink:href="#maa85c063c2" y="39.473187"/>
     <use style="fill:#ff7f0e;stroke:#ff7f0e;" x="207.515005" xlink:href="#maa85c063c2" y="36.715423"/>
     <use style="fill:#ff7f0e;stroke:#ff7f0e;" x="204.750827" xlink:href="#maa85c063c2" y="37.586919"/>
     <use style="fill:#ff7f0e;stroke:#ff7f0e;" x="204.728085" xlink:href="#maa85c063c2" y="39.502518"/>
     <use style="fill:#ff7f0e;stroke:#ff7f0e;" x="207.148589" xlink:href="#maa85c063c2" y="38.240306"/>
     <use style="fill:#ff7f0e;stroke:#ff7f0e;" x="199.870663" xlink:href="#maa85c063c2" y="34.795505"/>
     <use style="fill:#ff7f0e;stroke:#ff7f0e;" x="202.033771" xlink:href="#maa85c063c2" y="39.804856"/>
     <use style="fill:#ff7f0e;stroke:#ff7f0e;" x="206.399337" xlink:href="#maa85c063c2" y="41.355039"/>
     <use style="fill:#ff7f0e;stroke:#ff7f0e;" x="205.837734" xlink:href="#maa85c063c2" y="38.910664"/>
     <use style="fill:#ff7f0e;stroke:#ff7f0e;" x="204.332854" xlink:href="#maa85c063c2" y="34.571129"/>
     <use style="fill:#ff7f0e;stroke:#ff7f0e;" x="210.244212" xlink:href="#maa85c063c2" y="33.509877"/>
     <use style="fill:#ff7f0e;stroke:#ff7f0e;" x="208.778852" xlink:href="#maa85c063c2" y="36.597357"/>
     <use style="fill:#ff7f0e;stroke:#ff7f0e;" x="215.617928" xlink:href="#maa85c063c2" y="30.856959"/>
     <use style="fill:#ff7f0e;stroke:#ff7f0e;" x="214.270045" xlink:href="#maa85c063c2" y="29.464554"/>
     <use style="fill:#ff7f0e;stroke:#ff7f0e;" x="215.833268" xlink:href="#maa85c063c2" y="28.296909"/>
     <use style="fill:#ff7f0e;stroke:#ff7f0e;" x="214.17328" xlink:href="#maa85c063c2" y="30.252855"/>
     <use style="fill:#ff7f0e;stroke:#ff7f0e;" x="210.92054" xlink:href="#maa85c063c2" y="33.66008"/>
     <use style="fill:#ff7f0e;stroke:#ff7f0e;" x="208.207498" xlink:href="#maa85c063c2" y="30.309898"/>
     <use style="fill:#ff7f0e;stroke:#ff7f0e;" x="206.918099" xlink:href="#maa85c063c2" y="29.78417"/>
     <use style="fill:#ff7f0e;stroke:#ff7f0e;" x="207.800779" xlink:href="#maa85c063c2" y="34.732428"/>
     <use style="fill:#ff7f0e;stroke:#ff7f0e;" x="206.121891" xlink:href="#maa85c063c2" y="31.76523"/>
     <use style="fill:#ff7f0e;stroke:#ff7f0e;" x="204.952122" xlink:href="#maa85c063c2" y="37.287808"/>
     <use style="fill:#ff7f0e;stroke:#ff7f0e;" x="206.054056" xlink:href="#maa85c063c2" y="35.838758"/>
     <use style="fill:#ff7f0e;stroke:#ff7f0e;" x="203.576516" xlink:href="#maa85c063c2" y="35.590678"/>
     <use style="fill:#ff7f0e;stroke:#ff7f0e;" x="207.832462" xlink:href="#maa85c063c2" y="32.220949"/>
     <use style="fill:#ff7f0e;stroke:#ff7f0e;" x="208.036324" xlink:href="#maa85c063c2" y="37.896676"/>
     <use style="fill:#ff7f0e;stroke:#ff7f0e;" x="212.55249" xlink:href="#maa85c063c2" y="41.210087"/>
     <use style="fill:#ff7f0e;stroke:#ff7f0e;" x="217.203101" xlink:href="#maa85c063c2" y="38.872744"/>
     <use style="fill:#ff7f0e;stroke:#ff7f0e;" x="210.626465" xlink:href="#maa85c063c2" y="42.213623"/>
     <use style="fill:#ff7f0e;stroke:#ff7f0e;" x="205.519711" xlink:href="#maa85c063c2" y="37.57774"/>
     <use style="fill:#ff7f0e;stroke:#ff7f0e;" x="207.214707" xlink:href="#maa85c063c2" y="40.600556"/>
     <use style="fill:#ff7f0e;stroke:#ff7f0e;" x="205.853909" xlink:href="#maa85c063c2" y="40.0597"/>
    </g>
   </g>
   <g id="patch_3">
    <path d="M 42.620312 143.1 
L 42.620312 7.2 
" style="fill:none;stroke:#000000;stroke-linecap:square;stroke-linejoin:miter;stroke-width:0.8;"/>
   </g>
   <g id="patch_4">
    <path d="M 237.920313 143.1 
L 237.920313 7.2 
" style="fill:none;stroke:#000000;stroke-linecap:square;stroke-linejoin:miter;stroke-width:0.8;"/>
   </g>
   <g id="patch_5">
    <path d="M 42.620312 143.1 
L 237.920313 143.1 
" style="fill:none;stroke:#000000;stroke-linecap:square;stroke-linejoin:miter;stroke-width:0.8;"/>
   </g>
   <g id="patch_6">
    <path d="M 42.620312 7.2 
L 237.920313 7.2 
" style="fill:none;stroke:#000000;stroke-linecap:square;stroke-linejoin:miter;stroke-width:0.8;"/>
   </g>
  </g>
 </g>
 <defs>
  <clipPath id="pc0e4525a6f">
   <rect height="135.9" width="195.3" x="42.620312" y="7.2"/>
  </clipPath>
 </defs>
</svg>
