<?xml version="1.0" encoding="utf-8" standalone="no"?>
<!DOCTYPE svg PUBLIC "-//W3C//DTD SVG 1.1//EN"
  "http://www.w3.org/Graphics/SVG/1.1/DTD/svg11.dtd">
<!-- Created with matplotlib (https://matplotlib.org/) -->
<svg height="180.65625pt" version="1.1" viewBox="0 0 245.120313 180.65625" width="245.120313pt" xmlns="http://www.w3.org/2000/svg" xmlns:xlink="http://www.w3.org/1999/xlink">
 <metadata>
  <rdf:RDF xmlns:cc="http://creativecommons.org/ns#" xmlns:dc="http://purl.org/dc/elements/1.1/" xmlns:rdf="http://www.w3.org/1999/02/22-rdf-syntax-ns#">
   <cc:Work>
    <dc:type rdf:resource="http://purl.org/dc/dcmitype/StillImage"/>
    <dc:date>2021-08-25T11:50:55.723157</dc:date>
    <dc:format>image/svg+xml</dc:format>
    <dc:creator>
     <cc:Agent>
      <dc:title>Matplotlib v3.3.4, https://matplotlib.org/</dc:title>
     </cc:Agent>
    </dc:creator>
   </cc:Work>
  </rdf:RDF>
 </metadata>
 <defs>
  <style type="text/css">*{stroke-linecap:butt;stroke-linejoin:round;}</style>
 </defs>
 <g id="figure_1">
  <g id="patch_1">
   <path d="M 0 180.65625 
L 245.120313 180.65625 
L 245.120313 0 
L 0 0 
z
" style="fill:none;"/>
  </g>
  <g id="axes_1">
   <g id="patch_2">
    <path d="M 42.620312 143.1 
L 237.920313 143.1 
L 237.920313 7.2 
L 42.620312 7.2 
z
" style="fill:#ffffff;"/>
   </g>
   <g id="matplotlib.axis_1">
    <g id="xtick_1">
     <g id="line2d_1">
      <defs>
       <path d="M 0 0 
L 0 3.5 
" id="mfec90a865c" style="stroke:#000000;stroke-width:0.8;"/>
      </defs>
      <g>
       <use style="stroke:#000000;stroke-width:0.8;" x="88.39375" xlink:href="#mfec90a865c" y="143.1"/>
      </g>
     </g>
     <g id="text_1">
      <!-- −4 -->
      <g transform="translate(81.022656 157.698438)scale(0.1 -0.1)">
       <defs>
        <path d="M 10.59375 35.5 
L 73.1875 35.5 
L 73.1875 27.203125 
L 10.59375 27.203125 
z
" id="DejaVuSans-8722"/>
        <path d="M 37.796875 64.3125 
L 12.890625 25.390625 
L 37.796875 25.390625 
z
M 35.203125 72.90625 
L 47.609375 72.90625 
L 47.609375 25.390625 
L 58.015625 25.390625 
L 58.015625 17.1875 
L 47.609375 17.1875 
L 47.609375 0 
L 37.796875 0 
L 37.796875 17.1875 
L 4.890625 17.1875 
L 4.890625 26.703125 
z
" id="DejaVuSans-52"/>
       </defs>
       <use xlink:href="#DejaVuSans-8722"/>
       <use x="83.789062" xlink:href="#DejaVuSans-52"/>
      </g>
     </g>
    </g>
    <g id="xtick_2">
     <g id="line2d_2">
      <g>
       <use style="stroke:#000000;stroke-width:0.8;" x="149.425" xlink:href="#mfec90a865c" y="143.1"/>
      </g>
     </g>
     <g id="text_2">
      <!-- −2 -->
      <g transform="translate(142.053907 157.698438)scale(0.1 -0.1)">
       <defs>
        <path d="M 19.1875 8.296875 
L 53.609375 8.296875 
L 53.609375 0 
L 7.328125 0 
L 7.328125 8.296875 
Q 12.9375 14.109375 22.625 23.890625 
Q 32.328125 33.6875 34.8125 36.53125 
Q 39.546875 41.84375 41.421875 45.53125 
Q 43.3125 49.21875 43.3125 52.78125 
Q 43.3125 58.59375 39.234375 62.25 
Q 35.15625 65.921875 28.609375 65.921875 
Q 23.96875 65.921875 18.8125 64.3125 
Q 13.671875 62.703125 7.8125 59.421875 
L 7.8125 69.390625 
Q 13.765625 71.78125 18.9375 73 
Q 24.125 74.21875 28.421875 74.21875 
Q 39.75 74.21875 46.484375 68.546875 
Q 53.21875 62.890625 53.21875 53.421875 
Q 53.21875 48.921875 51.53125 44.890625 
Q 49.859375 40.875 45.40625 35.40625 
Q 44.1875 33.984375 37.640625 27.21875 
Q 31.109375 20.453125 19.1875 8.296875 
z
" id="DejaVuSans-50"/>
       </defs>
       <use xlink:href="#DejaVuSans-8722"/>
       <use x="83.789062" xlink:href="#DejaVuSans-50"/>
      </g>
     </g>
    </g>
    <g id="xtick_3">
     <g id="line2d_3">
      <g>
       <use style="stroke:#000000;stroke-width:0.8;" x="210.456251" xlink:href="#mfec90a865c" y="143.1"/>
      </g>
     </g>
     <g id="text_3">
      <!-- 0 -->
      <g transform="translate(207.275001 157.698438)scale(0.1 -0.1)">
       <defs>
        <path d="M 31.78125 66.40625 
Q 24.171875 66.40625 20.328125 58.90625 
Q 16.5 51.421875 16.5 36.375 
Q 16.5 21.390625 20.328125 13.890625 
Q 24.171875 6.390625 31.78125 6.390625 
Q 39.453125 6.390625 43.28125 13.890625 
Q 47.125 21.390625 47.125 36.375 
Q 47.125 51.421875 43.28125 58.90625 
Q 39.453125 66.40625 31.78125 66.40625 
z
M 31.78125 74.21875 
Q 44.046875 74.21875 50.515625 64.515625 
Q 56.984375 54.828125 56.984375 36.375 
Q 56.984375 17.96875 50.515625 8.265625 
Q 44.046875 -1.421875 31.78125 -1.421875 
Q 19.53125 -1.421875 13.0625 8.265625 
Q 6.59375 17.96875 6.59375 36.375 
Q 6.59375 54.828125 13.0625 64.515625 
Q 19.53125 74.21875 31.78125 74.21875 
z
" id="DejaVuSans-48"/>
       </defs>
       <use xlink:href="#DejaVuSans-48"/>
      </g>
     </g>
    </g>
    <g id="text_4">
     <!-- x1 -->
     <g transform="translate(134.129687 171.376563)scale(0.1 -0.1)">
      <defs>
       <path d="M 54.890625 54.6875 
L 35.109375 28.078125 
L 55.90625 0 
L 45.3125 0 
L 29.390625 21.484375 
L 13.484375 0 
L 2.875 0 
L 24.125 28.609375 
L 4.6875 54.6875 
L 15.28125 54.6875 
L 29.78125 35.203125 
L 44.28125 54.6875 
z
" id="DejaVuSans-120"/>
       <path d="M 12.40625 8.296875 
L 28.515625 8.296875 
L 28.515625 63.921875 
L 10.984375 60.40625 
L 10.984375 69.390625 
L 28.421875 72.90625 
L 38.28125 72.90625 
L 38.28125 8.296875 
L 54.390625 8.296875 
L 54.390625 0 
L 12.40625 0 
z
" id="DejaVuSans-49"/>
      </defs>
      <use xlink:href="#DejaVuSans-120"/>
      <use x="59.179688" xlink:href="#DejaVuSans-49"/>
     </g>
    </g>
   </g>
   <g id="matplotlib.axis_2">
    <g id="ytick_1">
     <g id="line2d_4">
      <defs>
       <path d="M 0 0 
L -3.5 0 
" id="meac9dbb3ed" style="stroke:#000000;stroke-width:0.8;"/>
      </defs>
      <g>
       <use style="stroke:#000000;stroke-width:0.8;" x="42.620312" xlink:href="#meac9dbb3ed" y="120.784729"/>
      </g>
     </g>
     <g id="text_5">
      <!-- −2 -->
      <g transform="translate(20.878125 124.583948)scale(0.1 -0.1)">
       <use xlink:href="#DejaVuSans-8722"/>
       <use x="83.789062" xlink:href="#DejaVuSans-50"/>
      </g>
     </g>
    </g>
    <g id="ytick_2">
     <g id="line2d_5">
      <g>
       <use style="stroke:#000000;stroke-width:0.8;" x="42.620312" xlink:href="#meac9dbb3ed" y="76.154187"/>
      </g>
     </g>
     <g id="text_6">
      <!-- 0 -->
      <g transform="translate(29.257812 79.953406)scale(0.1 -0.1)">
       <use xlink:href="#DejaVuSans-48"/>
      </g>
     </g>
    </g>
    <g id="ytick_3">
     <g id="line2d_6">
      <g>
       <use style="stroke:#000000;stroke-width:0.8;" x="42.620312" xlink:href="#meac9dbb3ed" y="31.523645"/>
      </g>
     </g>
     <g id="text_7">
      <!-- 2 -->
      <g transform="translate(29.257812 35.322864)scale(0.1 -0.1)">
       <use xlink:href="#DejaVuSans-50"/>
      </g>
     </g>
    </g>
    <g id="text_8">
     <!-- x2 -->
     <g transform="translate(14.798437 81.290625)rotate(-90)scale(0.1 -0.1)">
      <use xlink:href="#DejaVuSans-120"/>
      <use x="59.179688" xlink:href="#DejaVuSans-50"/>
     </g>
    </g>
   </g>
   <g id="LineCollection_1"/>
   <g id="LineCollection_2">
    <path clip-path="url(#p8cd9bf42cf)" d="M 97.100868 56.070444 
L 94.496869 56.490497 
L 91.44531 56.995871 
L 88.393757 57.514372 
L 85.342191 58.046001 
L 83.908323 58.30197 
L 82.290631 58.62926 
L 79.239071 59.261526 
L 76.187512 59.908668 
L 73.307377 60.533498 
L 73.135938 60.576413 
L 70.084378 61.357446 
L 67.032818 62.155645 
L 64.752171 62.765024 
L 63.981244 63.008465 
L 60.929685 63.992365 
L 57.878125 64.996552 
L 54.826565 66.248684 
L 52.48604 67.228079 
L 51.775006 67.610622 
L 48.723432 69.284276 
L 48.409729 69.459606 
L 45.671872 71.601873 
L 45.55989 71.691133 
L 43.880133 73.922661 
L 43.320214 76.154188 
L 43.880133 78.385715 
L 45.55989 80.617242 
L 45.671872 80.706502 
L 48.409729 82.848769 
L 48.723432 83.024098 
L 51.775006 84.697753 
L 52.486042 85.080296 
L 54.826565 86.059689 
L 57.878125 87.311823 
L 60.929685 88.31601 
L 63.981244 89.299909 
L 64.752171 89.54335 
L 67.032818 90.152729 
L 70.084378 90.950929 
L 73.135938 91.731962 
L 73.307377 91.774877 
L 76.187512 92.399707 
L 79.239071 93.046849 
L 82.290631 93.679115 
L 83.908319 94.006403 
L 85.342191 94.262373 
L 88.393757 94.794003 
L 91.44531 95.312502 
L 94.496869 95.817878 
L 97.100868 96.237931 
L 97.548436 96.302528 
L 100.599996 96.731216 
L 103.651563 97.14816 
L 106.703122 97.553357 
L 109.754682 97.94681 
L 112.806249 98.328519 
L 113.968755 98.469458 
L 115.857816 98.676672 
L 118.909375 99.000774 
L 121.960942 99.314251 
L 125.012502 99.617101 
L 128.064069 99.909325 
L 131.115628 100.190923 
L 134.167188 100.461893 
L 136.969651 100.700986 
L 137.218755 100.72039 
L 140.270314 100.948394 
L 143.321874 101.166696 
L 146.373441 101.375295 
L 149.425 101.574191 
L 152.476564 101.763386 
L 155.528127 101.942879 
L 158.57969 102.112669 
L 161.631253 102.272756 
L 164.682813 102.423143 
L 167.734376 102.563825 
L 170.785939 102.694807 
L 173.837499 102.816085 
L 176.889062 102.927661 
L 177.034329 102.932511 
L 179.940626 103.021774 
L 182.992189 103.106571 
L 186.04375 103.182444 
L 189.095313 103.249389 
L 192.146877 103.307409 
L 195.198438 103.356502 
L 198.250001 103.39667 
L 201.301564 103.427911 
L 204.353126 103.450227 
L 207.404689 103.463616 
L 210.456251 103.468079 
L 213.507813 103.463616 
L 216.559376 103.450227 
L 219.610939 103.427911 
L 222.662501 103.39667 
L 225.714063 103.356502 
L 228.765626 103.307409 
L 231.817188 103.249389 
L 234.868751 103.182444 
L 237.920313 103.106571 
" style="fill:none;stroke:#1f77b4;stroke-width:1.5;"/>
   </g>
   <g id="LineCollection_3">
    <path clip-path="url(#p8cd9bf42cf)" d="M 42.620312 103.356502 
L 45.671872 103.842976 
L 48.723432 104.32052 
L 51.775006 104.789143 
L 54.263642 105.164038 
L 54.826565 105.242557 
L 57.878125 105.659934 
L 60.929685 106.069047 
L 63.981244 106.469895 
L 67.032818 106.86248 
L 70.084378 107.246799 
L 71.29158 107.395566 
L 73.135938 107.607177 
L 76.187512 107.949602 
L 79.239071 108.284331 
L 82.290631 108.611365 
L 85.342191 108.930704 
L 88.393757 109.242348 
L 91.44531 109.546297 
L 92.277553 109.627094 
L 94.496869 109.82865 
L 97.548436 110.098594 
L 100.599996 110.361338 
L 103.651563 110.616884 
L 106.703122 110.86523 
L 109.754682 111.106379 
L 112.806249 111.340329 
L 115.857816 111.567082 
L 118.909375 111.786635 
L 119.943828 111.858621 
L 121.960942 111.990483 
L 125.012502 112.183206 
L 128.064069 112.369166 
L 131.115628 112.548365 
L 134.167188 112.720801 
L 137.218755 112.886476 
L 140.270314 113.045388 
L 143.321874 113.197536 
L 146.373441 113.342924 
L 149.425 113.481549 
L 152.476564 113.613412 
L 155.528127 113.738514 
L 158.57969 113.856852 
L 161.631253 113.968428 
L 164.682813 114.073243 
L 165.20896 114.090149 
L 167.734376 114.166657 
L 170.785939 114.25273 
L 173.837499 114.332428 
L 176.889062 114.40575 
L 179.940626 114.472696 
L 182.992189 114.533266 
L 186.04375 114.587459 
L 189.095313 114.635279 
L 192.146877 114.676722 
L 195.198438 114.711787 
L 198.250001 114.740479 
L 201.301564 114.762795 
L 204.353126 114.778733 
L 207.404689 114.788297 
L 210.456251 114.791485 
L 213.507813 114.788297 
L 216.559376 114.778733 
L 219.610939 114.762795 
L 222.662501 114.740479 
L 225.714063 114.711787 
L 228.765626 114.676722 
L 231.817188 114.635279 
L 234.868751 114.587459 
L 237.920313 114.533266 
" style="fill:none;stroke:#1f77b4;stroke-width:1.5;"/>
   </g>
   <g id="LineCollection_4">
    <path clip-path="url(#p8cd9bf42cf)" d="M 42.620312 114.711787 
L 45.671872 115.059268 
L 48.723432 115.400372 
L 51.775006 115.735103 
L 54.826565 116.063456 
L 57.27387 116.321676 
L 57.878125 116.381986 
L 60.929685 116.680529 
L 63.981244 116.973039 
L 67.032818 117.25952 
L 70.084378 117.539968 
L 73.135938 117.814385 
L 76.187512 118.082773 
L 79.239071 118.345128 
L 81.716227 118.553204 
L 82.290631 118.598978 
L 85.342191 118.836434 
L 88.393757 119.06817 
L 91.44531 119.294183 
L 94.496869 119.514475 
L 97.548436 119.729044 
L 100.599996 119.937892 
L 103.651563 120.141019 
L 106.703122 120.338424 
L 109.754682 120.530107 
L 112.806249 120.716066 
L 113.968764 120.784729 
L 115.857816 120.890861 
L 118.909375 121.056867 
L 121.960942 121.217428 
L 125.012502 121.372545 
L 128.064069 121.522221 
L 131.115628 121.666455 
L 134.167188 121.805244 
L 137.218755 121.938591 
L 140.270314 122.066495 
L 143.321874 122.188957 
L 146.373441 122.305977 
L 149.425 122.417554 
L 152.476564 122.523686 
L 155.528127 122.624376 
L 158.57969 122.719627 
L 161.631253 122.809432 
L 164.682813 122.893792 
L 167.734376 122.972713 
L 169.542874 123.016259 
L 170.785939 123.044799 
L 173.837499 123.109668 
L 176.889062 123.169348 
L 179.940626 123.223838 
L 182.992189 123.27314 
L 186.04375 123.317252 
L 189.095313 123.356175 
L 192.146877 123.389906 
L 195.198438 123.41845 
L 198.250001 123.441803 
L 201.301564 123.459967 
L 204.353126 123.472941 
L 207.404689 123.480723 
L 210.456251 123.483319 
L 213.507813 123.480723 
L 216.559376 123.472941 
L 219.610939 123.459967 
L 222.662501 123.441803 
L 225.714063 123.41845 
L 228.765626 123.389906 
L 231.817188 123.356175 
L 234.868751 123.317252 
L 237.920313 123.27314 
" style="fill:none;stroke:#1f77b4;stroke-width:1.5;"/>
   </g>
   <g id="LineCollection_5">
    <path clip-path="url(#p8cd9bf42cf)" d="M 42.620312 123.41845 
L 45.671872 123.701282 
L 48.723432 123.978926 
L 51.775006 124.251381 
L 54.826565 124.518645 
L 57.878125 124.780719 
L 60.929685 125.037605 
L 63.477901 125.247784 
L 63.981244 125.287455 
L 67.032818 125.523006 
L 70.084378 125.753596 
L 73.135938 125.979229 
L 76.187512 126.199902 
L 79.239071 126.415616 
L 82.290631 126.626371 
L 85.342191 126.832168 
L 88.393757 127.033006 
L 91.44531 127.228883 
L 94.496869 127.419802 
L 95.47338 127.479309 
L 97.548436 127.600381 
L 100.599996 127.77368 
L 103.651563 127.942232 
L 106.703122 128.106036 
L 109.754682 128.265093 
L 112.806249 128.4194 
L 115.857816 128.568959 
L 118.909375 128.713773 
L 121.960942 128.853837 
L 125.012502 128.989152 
L 128.064069 129.11972 
L 131.115628 129.245542 
L 134.167188 129.366613 
L 137.218755 129.482937 
L 140.270314 129.594513 
L 143.321874 129.701342 
L 143.605786 129.71084 
L 146.373441 129.799644 
L 149.425 129.893005 
L 152.476564 129.981809 
L 155.528127 130.06606 
L 158.57969 130.145759 
L 161.631253 130.220903 
L 164.682813 130.29149 
L 167.734376 130.357525 
L 170.785939 130.419007 
L 173.837499 130.475933 
L 176.889062 130.528305 
L 179.940626 130.576123 
L 182.992189 130.619388 
L 186.04375 130.658098 
L 189.095313 130.692255 
L 192.146877 130.721856 
L 195.198438 130.746905 
L 198.250001 130.767398 
L 201.301564 130.783338 
L 204.353126 130.794723 
L 207.404689 130.801553 
L 210.456251 130.803831 
L 213.507813 130.801553 
L 216.559376 130.794723 
L 219.610939 130.783338 
L 222.662501 130.767398 
L 225.714063 130.746905 
L 228.765626 130.721856 
L 231.817188 130.692255 
L 234.868751 130.658098 
L 237.920313 130.619388 
" style="fill:none;stroke:#1f77b4;stroke-width:1.5;"/>
   </g>
   <g id="LineCollection_6">
    <path clip-path="url(#p8cd9bf42cf)" d="M 42.620312 130.746905 
L 45.671872 130.995104 
L 48.723432 131.238751 
L 51.775006 131.477844 
L 54.826565 131.712381 
L 57.878125 131.942365 
L 60.929685 132.158954 
L 63.981244 132.371168 
L 67.032818 132.579007 
L 70.084378 132.782469 
L 73.135938 132.981557 
L 76.187512 133.176269 
L 79.239071 133.366605 
L 82.290631 133.552565 
L 85.342191 133.734151 
L 88.393757 133.911361 
L 91.44531 134.084194 
L 93.070112 134.173889 
L 94.496869 134.24968 
L 97.548436 134.40757 
L 100.599996 134.561251 
L 103.651563 134.710721 
L 106.703122 134.855981 
L 109.754682 134.997031 
L 112.806249 135.133869 
L 115.857816 135.266498 
L 118.909375 135.394917 
L 121.960942 135.519124 
L 125.012502 135.63912 
L 128.064069 135.754907 
L 131.115628 135.866484 
L 134.167188 135.973849 
L 137.218755 136.077004 
L 140.270314 136.175949 
L 143.321874 136.270684 
L 146.373441 136.361209 
L 147.936485 136.40542 
L 149.425 136.445992 
L 152.476564 136.525109 
L 155.528127 136.600169 
L 158.57969 136.671174 
L 161.631253 136.738119 
L 164.682813 136.801006 
L 167.734376 136.859838 
L 170.785939 136.914613 
L 173.837499 136.965329 
L 176.889062 137.011987 
L 179.940626 137.054589 
L 182.992189 137.093134 
L 186.04375 137.127621 
L 189.095313 137.158052 
L 192.146877 137.184424 
L 195.198438 137.20674 
L 198.250001 137.224998 
L 201.301564 137.239198 
L 204.353126 137.249342 
L 207.404689 137.255427 
L 210.456251 137.257456 
L 213.507813 137.255427 
L 216.559376 137.249342 
L 219.610939 137.239198 
L 222.662501 137.224998 
L 225.714063 137.20674 
L 228.765626 137.184424 
L 231.817188 137.158052 
L 234.868751 137.127621 
L 237.920313 137.093134 
" style="fill:none;stroke:#1f77b4;stroke-width:1.5;"/>
   </g>
   <g id="LineCollection_7">
    <path clip-path="url(#p8cd9bf42cf)" d="M 42.620312 137.206738 
L 45.671872 137.427865 
L 48.723432 137.644928 
L 51.775006 137.857941 
L 54.826565 138.066894 
L 57.878125 138.271785 
L 60.929685 138.472624 
L 63.477871 138.636945 
L 63.981244 138.668266 
L 67.032818 138.854225 
L 70.084378 139.036272 
L 73.135938 139.214402 
L 76.187512 139.388619 
L 79.239071 139.558919 
L 82.290631 139.725305 
L 85.342191 139.887775 
L 88.393757 140.046331 
L 91.44531 140.200971 
L 94.496869 140.351697 
L 97.548436 140.498509 
L 100.599996 140.641405 
L 103.651563 140.780385 
L 105.641791 140.868475 
L 106.703122 140.913859 
L 109.754682 141.040563 
L 112.806249 141.163487 
L 115.857816 141.282628 
L 118.909375 141.397988 
L 121.960942 141.509564 
L 125.012502 141.617357 
L 128.064069 141.721369 
L 131.115628 141.821598 
L 134.167188 141.918047 
L 137.218755 142.010711 
L 140.270314 142.099596 
L 143.321874 142.184697 
L 146.373441 142.266014 
L 149.425 142.343551 
L 152.476564 142.417304 
L 155.528127 142.487276 
L 158.57969 142.553466 
L 161.631253 142.615871 
L 164.682813 142.674496 
L 167.734376 142.729341 
L 170.785939 142.780399 
L 173.837499 142.82768 
L 176.889062 142.871173 
L 179.940626 142.910887 
L 182.992189 142.94682 
L 186.04375 142.97897 
L 189.095313 143.007335 
L 192.146877 143.031921 
L 195.198438 143.052723 
L 198.250001 143.069741 
L 201.301564 143.082978 
L 204.353126 143.092436 
L 207.404689 143.09811 
L 210.456251 143.1 
" style="fill:none;stroke:#1f77b4;stroke-width:1.5;"/>
    <path clip-path="url(#p8cd9bf42cf)" d="M 210.456251 143.1 
L 213.507813 143.09811 
L 216.559376 143.092436 
L 219.610939 143.082978 
L 222.662501 143.069741 
L 225.714063 143.052723 
L 228.765626 143.031921 
L 231.817188 143.007335 
L 234.868751 142.97897 
L 237.920313 142.94682 
" style="fill:none;stroke:#1f77b4;stroke-width:1.5;"/>
   </g>
   <g id="LineCollection_8">
    <path clip-path="url(#p8cd9bf42cf)" d="M 42.620312 143.052723 
L 43.320206 143.1 
" style="fill:none;stroke:#1f77b4;stroke-width:1.5;"/>
   </g>
   <g id="LineCollection_9"/>
   <g id="line2d_7">
    <path clip-path="url(#p8cd9bf42cf)" d="M 57.878125 120.784729 
L 76.1875 13.671429 
L 101.454438 110.073399 
L 127.168124 76.868276 
L 150.019542 58.551901 
L 168.697657 91.6392 
L 183.047745 71.018819 
L 193.51181 73.033513 
L 200.777175 81.530479 
L 205.571347 72.875862 
L 208.554621 76.416534 
L 210.274454 77.557238 
L 211.156186 74.760268 
L 211.51306 76.707189 
L 211.564679 76.353445 
L 211.457478 75.698354 
L 211.28373 76.464808 
L 211.097558 76.102545 
L 210.927516 76.045355 
L 210.785942 76.277957 
L 210.675593 76.09721 
" style="fill:none;stroke:#ff7f0e;stroke-linecap:square;stroke-width:1.5;"/>
    <defs>
     <path d="M 0 3 
C 0.795609 3 1.55874 2.683901 2.12132 2.12132 
C 2.683901 1.55874 3 0.795609 3 0 
C 3 -0.795609 2.683901 -1.55874 2.12132 -2.12132 
C 1.55874 -2.683901 0.795609 -3 0 -3 
C -0.795609 -3 -1.55874 -2.683901 -2.12132 -2.12132 
C -2.683901 -1.55874 -3 -0.795609 -3 0 
C -3 0.795609 -2.683901 1.55874 -2.12132 2.12132 
C -1.55874 2.683901 -0.795609 3 0 3 
z
" id="m70234d89e8" style="stroke:#ff7f0e;"/>
    </defs>
    <g clip-path="url(#p8cd9bf42cf)">
     <use style="fill:#ff7f0e;stroke:#ff7f0e;" x="57.878125" xlink:href="#m70234d89e8" y="120.784729"/>
     <use style="fill:#ff7f0e;stroke:#ff7f0e;" x="76.1875" xlink:href="#m70234d89e8" y="13.671429"/>
     <use style="fill:#ff7f0e;stroke:#ff7f0e;" x="101.454438" xlink:href="#m70234d89e8" y="110.073399"/>
     <use style="fill:#ff7f0e;stroke:#ff7f0e;" x="127.168124" xlink:href="#m70234d89e8" y="76.868276"/>
     <use style="fill:#ff7f0e;stroke:#ff7f0e;" x="150.019542" xlink:href="#m70234d89e8" y="58.551901"/>
     <use style="fill:#ff7f0e;stroke:#ff7f0e;" x="168.697657" xlink:href="#m70234d89e8" y="91.6392"/>
     <use style="fill:#ff7f0e;stroke:#ff7f0e;" x="183.047745" xlink:href="#m70234d89e8" y="71.018819"/>
     <use style="fill:#ff7f0e;stroke:#ff7f0e;" x="193.51181" xlink:href="#m70234d89e8" y="73.033513"/>
     <use style="fill:#ff7f0e;stroke:#ff7f0e;" x="200.777175" xlink:href="#m70234d89e8" y="81.530479"/>
     <use style="fill:#ff7f0e;stroke:#ff7f0e;" x="205.571347" xlink:href="#m70234d89e8" y="72.875862"/>
     <use style="fill:#ff7f0e;stroke:#ff7f0e;" x="208.554621" xlink:href="#m70234d89e8" y="76.416534"/>
     <use style="fill:#ff7f0e;stroke:#ff7f0e;" x="210.274454" xlink:href="#m70234d89e8" y="77.557238"/>
     <use style="fill:#ff7f0e;stroke:#ff7f0e;" x="211.156186" xlink:href="#m70234d89e8" y="74.760268"/>
     <use style="fill:#ff7f0e;stroke:#ff7f0e;" x="211.51306" xlink:href="#m70234d89e8" y="76.707189"/>
     <use style="fill:#ff7f0e;stroke:#ff7f0e;" x="211.564679" xlink:href="#m70234d89e8" y="76.353445"/>
     <use style="fill:#ff7f0e;stroke:#ff7f0e;" x="211.457478" xlink:href="#m70234d89e8" y="75.698354"/>
     <use style="fill:#ff7f0e;stroke:#ff7f0e;" x="211.28373" xlink:href="#m70234d89e8" y="76.464808"/>
     <use style="fill:#ff7f0e;stroke:#ff7f0e;" x="211.097558" xlink:href="#m70234d89e8" y="76.102545"/>
     <use style="fill:#ff7f0e;stroke:#ff7f0e;" x="210.927516" xlink:href="#m70234d89e8" y="76.045355"/>
     <use style="fill:#ff7f0e;stroke:#ff7f0e;" x="210.785942" xlink:href="#m70234d89e8" y="76.277957"/>
     <use style="fill:#ff7f0e;stroke:#ff7f0e;" x="210.675593" xlink:href="#m70234d89e8" y="76.09721"/>
    </g>
   </g>
   <g id="patch_3">
    <path d="M 42.620312 143.1 
L 42.620312 7.2 
" style="fill:none;stroke:#000000;stroke-linecap:square;stroke-linejoin:miter;stroke-width:0.8;"/>
   </g>
   <g id="patch_4">
    <path d="M 237.920313 143.1 
L 237.920313 7.2 
" style="fill:none;stroke:#000000;stroke-linecap:square;stroke-linejoin:miter;stroke-width:0.8;"/>
   </g>
   <g id="patch_5">
    <path d="M 42.620312 143.1 
L 237.920313 143.1 
" style="fill:none;stroke:#000000;stroke-linecap:square;stroke-linejoin:miter;stroke-width:0.8;"/>
   </g>
   <g id="patch_6">
    <path d="M 42.620312 7.2 
L 237.920313 7.2 
" style="fill:none;stroke:#000000;stroke-linecap:square;stroke-linejoin:miter;stroke-width:0.8;"/>
   </g>
  </g>
 </g>
 <defs>
  <clipPath id="p8cd9bf42cf">
   <rect height="135.9" width="195.3" x="42.620312" y="7.2"/>
  </clipPath>
 </defs>
</svg>
